<svg width="21" height="21" viewBox="0 0 21 21" fill="none" xmlns="http://www.w3.org/2000/svg">
<path d="M18.2251 8.31399L13.1115 7.57081L10.8255 2.93651C10.7631 2.80962 10.6604 2.70691 10.5335 2.64447C10.2153 2.48738 9.82859 2.61829 9.66949 2.93651L7.38355 7.57081L2.26992 8.31399C2.12893 8.33413 2.00004 8.40059 1.90135 8.50129C1.78204 8.62392 1.7163 8.7889 1.71856 8.95997C1.72083 9.13105 1.79092 9.29422 1.91343 9.41365L5.61322 13.0208L4.73913 18.1143C4.71863 18.2328 4.73174 18.3546 4.77697 18.466C4.82221 18.5775 4.89775 18.674 4.99505 18.7446C5.09234 18.8153 5.20748 18.8573 5.32742 18.8658C5.44737 18.8744 5.5673 18.8492 5.67364 18.793L10.2475 16.3883L14.8214 18.793C14.9463 18.8595 15.0913 18.8816 15.2302 18.8575C15.5807 18.797 15.8163 18.4647 15.7559 18.1143L14.8818 13.0208L18.5816 9.41365C18.6823 9.31496 18.7488 9.18606 18.7689 9.04508C18.8233 8.69262 18.5776 8.36635 18.2251 8.31399Z" fill="#F1E81B"/>
</svg>
