<svg width="148" height="36" viewBox="0 0 148 36" fill="none" xmlns="http://www.w3.org/2000/svg">
<path d="M54.08 15.6085V19.4348H50.4698V31.557H46.3789V13.7134C46.3789 12.5396 46.6261 11.6199 47.119 10.9526C47.6118 10.2883 48.155 9.78486 48.7517 9.44671C49.4612 9.03944 50.2638 8.79147 51.158 8.70129H55.9706V12.5276H52.7388C52.1894 12.5276 51.7653 12.6178 51.4677 12.7981C51.1686 12.98 50.9398 13.1829 50.7795 13.4083C50.5964 13.6563 50.4927 13.9493 50.4698 14.289V15.6085H54.08Z" fill="#F5F4F4"/>
<path d="M58.0332 10.5634C58.0332 10.0674 58.0393 9.69469 58.05 9.44671C58.0622 9.19874 58.1309 9.0184 58.256 8.90418C58.3826 8.79146 58.5886 8.72985 58.8755 8.71782C59.1624 8.7073 59.5805 8.70129 60.1298 8.70129C60.6806 8.70129 61.0987 8.7073 61.3856 8.71782C61.6709 8.72985 61.8784 8.79146 62.0036 8.90418C62.1302 9.0184 62.1989 9.19874 62.2096 9.44671C62.2218 9.69469 62.2279 10.0674 62.2279 10.5634C62.2279 11.0608 62.2218 11.4335 62.2096 11.6815C62.1989 11.9295 62.1302 12.1098 62.0036 12.2225C61.8784 12.3367 61.6709 12.3984 61.3856 12.4089C61.0987 12.4209 60.6806 12.4269 60.1298 12.4269C59.5805 12.4269 59.1624 12.4209 58.8755 12.4089C58.5886 12.3984 58.3826 12.3367 58.256 12.2225C58.1309 12.1098 58.0622 11.9295 58.05 11.6815C58.0393 11.4335 58.0332 11.0608 58.0332 10.5634ZM62.2279 14.3897V31.557H58.0332V14.3897H62.2279Z" fill="#F5F4F4"/>
<path d="M64.4956 19.4017C64.4956 18.228 64.7489 17.3082 65.2524 16.6425C65.756 15.9767 66.3068 15.4732 66.9019 15.1351C67.613 14.7293 68.4156 14.4813 69.3098 14.3896H74.1224V18.4865H70.8906C70.4313 18.4865 70.059 18.5661 69.7736 18.7239C69.4867 18.8817 69.2624 19.0516 69.1038 19.2319C68.9191 19.4573 68.794 19.7068 68.7253 19.9773V31.557H64.4956V19.4017Z" fill="#F5F4F4"/>
<path fill-rule="evenodd" clip-rule="evenodd" d="M92.205 20.7889C92.2508 21.1286 92.2905 21.4788 92.3256 21.8394C92.3591 22.2001 92.3759 22.5849 92.3759 22.9907V23.6008H80.3444C80.3901 23.9841 80.4466 24.3733 80.5153 24.7685C80.5839 25.1638 80.6984 25.5531 80.8601 25.9363C81.1119 26.5239 81.501 27.0424 82.0274 27.4948C82.5554 27.9456 83.2893 28.1711 84.2292 28.1711C85.1677 28.1711 85.9016 27.9456 86.4296 27.4948C86.956 27.0424 87.3451 26.5239 87.5969 25.9363H92.0662C91.8831 26.7268 91.6252 27.4151 91.2941 28.0012C90.9599 28.5889 90.5937 29.0968 90.1939 29.5252C89.7926 29.955 89.3623 30.3097 88.9045 30.5922C88.4453 30.8747 87.9982 31.1062 87.5633 31.2865C86.5089 31.6923 85.3981 31.8952 84.2292 31.8952C82.6927 31.8727 81.3285 31.5571 80.1368 30.9484C79.6333 30.6764 79.1343 30.3322 78.6415 29.9144C78.1486 29.4981 77.7137 28.9721 77.3353 28.3409C76.9584 27.7082 76.6533 26.9522 76.4244 26.0716C76.1955 25.1909 76.0811 24.1644 76.0811 22.9907C76.0811 21.8169 76.1955 20.7889 76.4244 19.9098C76.6533 19.0291 76.9584 18.2671 77.3353 17.6239C77.7137 16.9807 78.1486 16.4441 78.6415 16.0158C79.1343 15.5875 79.6333 15.2373 80.1368 14.9653C81.3285 14.3341 82.6927 13.9959 84.2292 13.9493C85.4881 13.9959 86.6691 14.2544 87.7693 14.7293C88.2271 14.9322 88.6924 15.1982 89.1624 15.5244C89.6309 15.852 90.0673 16.2578 90.4686 16.7432C90.8699 17.2286 91.2254 17.8042 91.5336 18.47C91.8434 19.1358 92.0662 19.9098 92.205 20.7889ZM87.873 20.7889C87.7571 20.4282 87.6152 20.0676 87.4427 19.7069C87.2703 19.3447 87.0353 19.0185 86.7378 18.724C86.4402 18.4309 86.0847 18.1995 85.6727 18.0297C85.2592 17.8613 84.7786 17.7757 84.2292 17.7757C83.6784 17.7757 83.1978 17.8613 82.7842 18.0297C82.3723 18.1995 82.0167 18.4309 81.7192 18.724C81.4216 19.0185 81.1805 19.3447 80.9974 19.7069C80.8128 20.0676 80.6755 20.4282 80.5839 20.7889H87.873Z" fill="#F5F4F4"/>
<path fill-rule="evenodd" clip-rule="evenodd" d="M107.338 17.7757C107.118 17.2421 106.865 16.7777 106.581 16.384V16.7943L107.338 17.7757ZM106.581 8.70129H110.673V22.9561C110.673 24.1313 110.559 25.1578 110.33 26.0385C110.101 26.9176 109.797 27.6796 109.417 28.3243C109.04 28.9676 108.61 29.4981 108.128 29.9144C107.647 30.3322 107.153 30.6763 106.649 30.9484C105.456 31.557 104.115 31.8726 102.626 31.8952C101.089 31.8726 99.725 31.557 98.5317 30.9484C98.0267 30.6763 97.5292 30.3322 97.0364 29.9144C96.542 29.4981 96.1071 28.9721 95.7287 28.3409C95.3503 27.7081 95.0466 26.9522 94.8177 26.0715C94.5873 25.1908 94.4729 24.1644 94.4729 22.9906C94.4729 21.8169 94.5812 20.7889 94.801 19.9097C95.0176 19.029 95.3045 18.2671 95.66 17.6239C96.0156 16.9806 96.4169 16.4441 96.8639 16.0158C97.311 15.5875 97.7749 15.2373 98.2571 14.9653C99.3572 14.3341 100.618 13.9959 102.04 13.9493C102.751 14.017 103.439 14.1868 104.104 14.4573C104.676 14.7068 105.261 15.084 105.859 15.592C106.118 15.8144 106.359 16.0774 106.581 16.384V8.70129ZM102.626 28.0358C103.472 28.0358 104.156 27.866 104.672 27.5278C105.188 27.1897 105.589 26.7658 105.876 26.2579C106.163 25.7499 106.35 25.2029 106.443 24.6152C106.533 24.0291 106.581 23.4881 106.581 22.9906C106.581 22.4947 106.533 21.9521 106.443 21.366C106.35 20.7784 106.163 20.2313 105.876 19.7234C105.589 19.2154 105.188 18.7916 104.672 18.4535C104.156 18.1153 103.472 17.9455 102.626 17.9455C101.776 17.9455 101.094 18.1153 100.578 18.4535C100.062 18.7916 99.667 19.2154 99.3923 19.7234C99.1177 20.2313 98.933 20.7784 98.8415 21.366C98.7499 21.9521 98.7042 22.4947 98.7042 22.9906C98.7042 23.4881 98.7499 24.0291 98.8415 24.6152C98.933 25.2029 99.1177 25.7499 99.3923 26.2579C99.667 26.7658 100.062 27.1897 100.578 27.5278C101.094 27.866 101.776 28.0358 102.626 28.0358Z" fill="#F5F4F4"/>
<path fill-rule="evenodd" clip-rule="evenodd" d="M129.093 20.7889C129.138 21.1286 129.18 21.4788 129.213 21.8394C129.248 22.2001 129.265 22.5849 129.265 22.9907V23.6008H117.232C117.278 23.9841 117.336 24.3733 117.404 24.7685C117.473 25.1638 117.588 25.5531 117.748 25.9363C117.999 26.5239 118.39 27.0424 118.917 27.4948C119.445 27.9456 120.177 28.1711 121.117 28.1711C122.057 28.1711 122.791 27.9456 123.317 27.4948C123.845 27.0424 124.234 26.5239 124.486 25.9363H128.955C128.772 26.7268 128.514 27.4151 128.182 28.0012C127.849 28.5889 127.483 29.0968 127.082 29.5252C126.68 29.955 126.251 30.3097 125.792 30.5922C125.334 30.8747 124.887 31.1062 124.452 31.2865C123.398 31.6923 122.286 31.8952 121.117 31.8952C119.582 31.8727 118.218 31.5571 117.026 30.9484C116.522 30.6764 116.023 30.3322 115.531 29.9144C115.038 29.4981 114.603 28.9721 114.224 28.3409C113.846 27.7082 113.542 26.9522 113.314 26.0716C113.085 25.1909 112.97 24.1644 112.97 22.9907C112.97 21.8169 113.085 20.7889 113.314 19.9098C113.542 19.0291 113.846 18.2671 114.224 17.6239C114.603 16.9807 115.038 16.4441 115.531 16.0158C116.023 15.5875 116.522 15.2373 117.026 14.9653C118.218 14.3341 119.582 13.9959 121.117 13.9493C122.377 13.9959 123.558 14.2544 124.658 14.7293C125.116 14.9322 125.58 15.1982 126.05 15.5244C126.52 15.852 126.956 16.2578 127.358 16.7432C127.757 17.2286 128.113 17.8042 128.423 18.47C128.733 19.1358 128.955 19.9098 129.093 20.7889ZM124.761 20.7889C124.646 20.4282 124.503 20.0676 124.332 19.7069C124.159 19.3447 123.924 19.0185 123.627 18.724C123.329 18.4309 122.974 18.1995 122.562 18.0297C122.148 17.8613 121.668 17.7757 121.117 17.7757C120.568 17.7757 120.085 17.8613 119.673 18.0297C119.261 18.1995 118.906 18.4309 118.607 18.724C118.309 19.0185 118.07 19.3447 117.885 19.7069C117.702 20.0676 117.565 20.4282 117.473 20.7889H124.761Z" fill="#F5F4F4"/>
<path d="M139.51 31.557H136.69L131.019 14.3896H135.247L139.51 27.2227L143.772 14.3896H148L142.328 31.557H139.51Z" fill="#F5F4F4"/>
<path d="M5.87432 22.7216C6.97601 22.1069 7.38342 21.2157 8.03955 20.5725C12.4325 16.2607 16.7889 11.9159 21.1728 7.59511C23.1885 5.60981 24.4122 5.59027 26.4432 7.50944C27.8531 8.84249 29.237 10.2011 30.4059 11.7596C36.0486 19.277 34.2221 30.2645 26.579 35.4765C24.8639 36.6457 24.1681 35.6208 23.1061 34.6935C21.9266 33.6625 22.3385 32.9351 23.1564 31.9462C25.3079 29.3493 27.5097 26.7733 27.9919 23.2416C28.4909 19.5836 27.2565 16.5523 24.8227 13.8756C24.1284 13.1107 23.5638 13.2174 22.8772 13.9042C19.1952 17.5923 15.495 21.2623 11.7856 24.9233C9.61578 27.0634 9.16259 29.5582 10.5939 32.1581C11.6238 34.0292 10.249 34.7852 9.24652 35.5276C8.07617 36.3948 7.54669 35.7034 6.81427 35.1699C-1.49414 29.1073 -2.34253 17.4886 5.02746 9.73521C7.96631 6.64379 11.0974 3.72971 14.0973 0.693894C14.993 -0.213844 15.643 -0.240899 16.589 0.671348C19.4241 3.40959 19.4577 3.37653 16.7004 6.10576C14.1797 8.60354 11.6116 11.0562 9.14886 13.6081C6.78069 16.0623 5.52185 18.9689 5.87432 22.7216Z" fill="url(#paint0_linear_151_798)"/>
<defs>
<linearGradient id="paint0_linear_151_798" x1="2.05673" y1="-0.292896" x2="31.6328" y2="-0.292896" gradientUnits="userSpaceOnUse">
<stop stop-color="#FF5630"/>
<stop offset="1" stop-color="#FF3570"/>
</linearGradient>
</defs>
</svg>
